<?xml version="1.0" encoding="utf-8"?>
<!-- Generator: Adobe Illustrator 17.1.0, SVG Export Plug-In . SVG Version: 6.00 Build 0)  -->
<!DOCTYPE svg PUBLIC "-//W3C//DTD SVG 1.1//EN" "http://www.w3.org/Graphics/SVG/1.1/DTD/svg11.dtd">
<svg version="1.1" id="Layer_1" xmlns="http://www.w3.org/2000/svg" xmlns:xlink="http://www.w3.org/1999/xlink" x="0px" y="0px"
	 viewBox="0 0 196.7 152" enable-background="new 0 0 196.7 152" xml:space="preserve">
<g>
	<path fill="#374D65" d="M51.5,76.9c2.6-4.2,5.9-8.4,9.8-12.5c3.9-4.1,8.7-7.8,14.2-11.1c5.5-3.3,10.9-6.1,18.2-8.3
		c7.4-2.2,15.8-3.5,25.3-3.9V4.5l72.5,56.4l-72.5,55.6V76.2c-2.4,0-5.6,0.1-9.6,0.2c-4,0.2-8.4,0.6-13.2,1.3
		c-4.9,0.7-8.9,1.8-14.2,3.2c-5.4,1.4-10.6,3.4-15.8,5.9c-5.2,2.5-10,5.3-14.6,9.2c-4.6,3.8-8.5,8.5-11.7,14
		C41.6,97.6,45.4,86.8,51.5,76.9z"/>
	<path fill="#374D65" d="M145.5,122.2v14.1H20.2V50.6h23.5c0.7-2.4,1.6-4.7,3.3-6.5c2.2-2.3,4.7-4.6,7.3-6.7H7.1v112h151.6v-36.6
		L145.5,122.2z"/>
</g>
</svg>
