<?xml version="1.0" encoding="utf-8"?>
<!-- Generator: Adobe Illustrator 17.1.0, SVG Export Plug-In . SVG Version: 6.00 Build 0)  -->
<!DOCTYPE svg PUBLIC "-//W3C//DTD SVG 1.1//EN" "http://www.w3.org/Graphics/SVG/1.1/DTD/svg11.dtd">
<svg version="1.1" id="Layer_1" xmlns="http://www.w3.org/2000/svg" xmlns:xlink="http://www.w3.org/1999/xlink" x="0px" y="0px"
	 viewBox="0 54.1 500 345" enable-background="new 0 54.1 500 345" xml:space="preserve">
<path fill="#374D65" d="M295.5,239.5v27.9c5.1,2.2,10.9,4.8,17.4,7.6c6.5,2.9,13.2,5.8,20.2,8.8c6.9,3,13.9,6,21,9.1
	c7.1,3,13.8,5.8,20.2,8.5c6.4,2.6,12.1,4.9,17.2,7c5.1,2.1,9.2,3.7,12.4,4.8c6.7,2.4,12.1,6,16.2,10.9c4.1,4.8,7.4,9.8,9.8,14.9
	c2.8,5.9,4.9,12.1,6.2,18.6v30.3H64.9v-30.3c1.4-6.5,3.6-12.7,6.4-18.6c2.4-5.1,5.7-10.1,9.8-14.9c4.1-4.9,9.5-8.5,16-10.9
	c3.3-1.1,7.7-2.7,13.1-4.9c5.4-2.1,11.5-4.6,18.2-7.4c6.7-2.8,13.7-5.8,21.1-9c7.4-3.2,14.8-6.4,22.1-9.5c7.3-3.2,14.2-6.2,20.8-9.1
	c6.5-2.9,12.3-5.4,17.2-7.6v-27.2c-0.3-1.3-0.8-3.2-1.5-5.9c-0.7-2.6-1.5-5.3-2.3-8c-0.9-3.2-2.1-6.6-3.3-10.3
	c-4.6-8.6-8.3-18.3-11-29.2s-4.1-22.5-4.1-34.7c0-16.1,1.7-29.7,5.1-40.8c3.4-11.2,8.1-20.2,14-27.2c5.9-7,12.8-12.1,20.7-15.3
	c7.9-3.2,16.3-4.8,25.4-4.8c8.9,0,17.3,1.5,25.2,4.7c7.9,3.1,14.8,8.1,20.8,15c6,6.9,10.7,16,14.1,27.2c3.4,11.2,5.1,25,5.1,41.2
	c0,11.9-1.3,23.3-3.9,34c-2.6,10.8-6.2,20.4-10.9,29c-1.3,3.9-2.5,7.7-3.6,11.2c-1,3.1-1.8,6-2.6,8.7
	C295.9,236.3,295.5,238.3,295.5,239.5z"/>
<path opacity="0.5" fill="#374D65" d="M416,224.1v16.3c3,1.3,6.4,2.8,10.2,4.5c3.8,1.7,7.7,3.4,11.8,5.2c4,1.8,8.1,3.5,12.3,5.3
	c4.1,1.8,8.1,3.4,11.8,4.9c3.7,1.5,7,2.9,10,4.1c3,1.2,5.4,2.1,7.2,2.8c3.9,1.4,7.1,3.5,9.5,6.4c2.4,2.8,4.3,5.7,5.7,8.7
	c1.7,3.4,2.9,7.1,3.6,28.6v30.9H281.4V293c0.8-3.8,2.1-7.4,3.8-10.9c1.4-3,3.3-5.9,5.7-8.7c2.4-2.8,5.5-5,9.3-6.4
	c1.9-0.6,4.5-1.6,7.7-2.9c3.2-1.2,6.7-2.7,10.6-4.3c3.9-1.6,8-3.4,12.3-5.2c4.3-1.9,8.6-3.7,12.9-5.6c4.3-1.9,8.3-3.6,12.1-5.3
	c3.8-1.7,7.2-3.2,10-4.5v-15.9c-0.2-0.7-0.5-1.9-0.9-3.4c-0.4-1.5-0.9-3.1-1.3-4.7c-0.6-1.8-1.2-3.9-1.9-6c-2.7-5-4.8-10.7-6.4-17.1
	c-1.6-6.4-2.4-13.1-2.4-20.3c0-9.4,1-17.3,3-23.8c2-6.5,4.7-11.8,8.2-15.9c3.4-4.1,7.4-7.1,12-8.9c4.6-1.9,9.5-2.8,14.8-2.8
	c5.2,0,10.1,0.9,14.7,2.7c4.6,1.8,8.6,4.7,12.1,8.8c3.5,4,6.2,9.4,8.2,15.9c2,6.5,3,14.6,3,24c0,7-0.8,13.6-2.3,19.8
	c-1.5,6.3-3.6,11.9-6.3,16.9c-0.7,2.3-1.4,4.5-2.1,6.5c-0.6,1.8-1.1,3.5-1.5,5.1C416.2,222.2,416,223.4,416,224.1z"/>
<path opacity="0.5" fill="#374D65" d="M137.5,224.1v16.3c3,1.3,6.4,2.8,10.2,4.5c3.8,1.7,7.7,3.4,11.8,5.2c4,1.8,8.1,3.5,12.3,5.3
	c4.1,1.8,8.1,3.4,11.8,4.9c3.7,1.5,7,2.9,10,4.1c3,1.2,5.4,2.1,7.2,2.8c3.9,1.4,7.1,3.5,9.5,6.4c2.4,2.8,4.3,5.7,5.7,8.7
	c1.7,3.4,2.9,7.1,3.6,28.6v30.9H3V293c0.8-3.8,2.1-7.4,3.8-10.9c1.4-3,3.3-5.9,5.7-8.7c2.4-2.8,5.5-5,9.3-6.4
	c1.9-0.6,4.5-1.6,7.7-2.9c3.2-1.2,6.7-2.7,10.6-4.3c3.9-1.6,8-3.4,12.3-5.2c4.3-1.9,8.6-3.7,12.9-5.6c4.3-1.9,8.3-3.6,12.1-5.3
	c3.8-1.7,7.2-3.2,10-4.5v-15.9c-0.2-0.7-0.5-1.9-0.9-3.4c-0.4-1.5-0.9-3.1-1.3-4.7c-0.6-1.8-1.2-3.9-1.9-6c-2.7-5-4.8-10.7-6.4-17.1
	c-1.6-6.4-2.4-13.1-2.4-20.3c0-9.4,1-17.3,3-23.8c2-6.5,4.7-11.8,8.2-15.9c3.4-4.1,7.4-7.1,12-8.9c4.6-1.9,9.5-2.8,14.8-2.8
	c5.2,0,10.1,0.9,14.7,2.7c4.6,1.8,8.6,4.7,12.1,8.8c3.5,4,6.2,9.4,8.2,15.9c2,6.5,3,14.6,3,24c0,7-0.8,13.6-2.3,19.8
	c-1.5,6.3-3.6,11.9-6.3,16.9c-0.7,2.3-1.4,4.5-2.1,6.5c-0.6,1.8-1.1,3.5-1.5,5.1C137.8,222.2,137.5,223.4,137.5,224.1z"/>
</svg>
