<svg version="1.1" xmlns="http://www.w3.org/2000/svg" xmlns:xlink="http://www.w3.org/1999/xlink" viewBox="0 0 10 10" enable-background="new 0 0 10 10">
<path fill="#FFFFFF" d="M9.8,8.7L7.5,6.4c0,0-0.1,0-0.1-0.1c0.4-0.6,0.6-1.3,0.6-2c0-2-1.7-3.7-3.7-3.7c-2,0-3.7,1.7-3.7,3.7
	c0,2,1.7,3.7,3.7,3.7c0.7,0,1.4-0.2,2-0.6c0,0,0,0.1,0.1,0.1l2.2,2.2C8.8,9.9,9,10,9.2,10c0.2,0,0.4-0.1,0.6-0.2
	C10.1,9.5,10.1,9,9.8,8.7z M4.4,6.9C3,6.9,1.8,5.8,1.8,4.4C1.8,3,3,1.8,4.4,1.8c1.4,0,2.5,1.1,2.5,2.5C6.9,5.8,5.8,6.9,4.4,6.9z"/>
</svg>
