<?xml version="1.0" encoding="utf-8"?>
<!-- Generator: Adobe Illustrator 17.1.0, SVG Export Plug-In . SVG Version: 6.00 Build 0)  -->
<!DOCTYPE svg PUBLIC "-//W3C//DTD SVG 1.1//EN" "http://www.w3.org/Graphics/SVG/1.1/DTD/svg11.dtd">
<svg version="1.1" id="Layer_1" xmlns="http://www.w3.org/2000/svg" xmlns:xlink="http://www.w3.org/1999/xlink" x="0px" y="0px"
	 viewBox="0 0 169 172.1" enable-background="new 0 0 169 172.1" xml:space="preserve">
<g>
	<g>
		<path fill="#374D65" d="M85.5,26.8c33.2,0,60.2,27,60.2,60.2c0,33.2-27,60.2-60.2,60.2c-33.2,0-60.2-27-60.2-60.2
			C25.3,53.8,52.3,26.8,85.5,26.8 M85.5,6.8C41.1,6.8,5.2,42.7,5.2,87c0,44.3,35.9,80.3,80.3,80.3c44.3,0,80.3-35.9,80.3-80.3
			C165.8,42.7,129.8,6.8,85.5,6.8L85.5,6.8z"/>
	</g>
	<g>
		<path fill="#374D65" d="M105.6,117.1c-2.6,0-5.1-1-7.1-2.9L78.4,94.1c-1.8-1.8-2.9-4.3-2.9-7.1v0c0,0,0,0,0,0V46.9
			c0-5.5,4.5-10,10-10c5.5,0,10,4.5,10,10v36l17.1,17.1c3.9,3.9,3.9,10.3,0,14.2C110.7,116.2,108.1,117.1,105.6,117.1L105.6,117.1z"
			/>
	</g>
</g>
</svg>
